[Header]
FileType HTR
DataType HTRS
FileVersion 1
NumSegments 22
NumFrames 5
DataFrameRate 24
EulerRotationOrder ZYX
CalibrationUnits mm
RotationUnits Degrees
GlobalAxisofGravity Y
BoneLengthAxis Y
ScaleFactor 1.0
[SegmentNames&Hierarchy]
reference	GLOBAL
Hips	reference
Spine	Hips
Spine1	Spine
Neck	Spine1
Head	Neck
LeftShoulder	Spine1
LeftArm	LeftShoulder
LeftForeArm	LeftArm
LeftHand	LeftForeArm
RightShoulder	Spine1
RightArm	RightShoulder
RightForeArm	RightArm
RightHand	RightForeArm
LeftUpLeg	Hips
LeftLeg	LeftUpLeg
LeftFoot	LeftLeg
LeftToeBase	LeftFoot
RightUpLeg	Hips
RightLeg	RightUpLeg
RightFoot	RightLeg
RightToeBase	RightFoot
[BasePosition]
reference	0	0	0	0	0	0	1
Hips	0	0	0	0	0	0	1
Spine	0	0	0	0	-0	90	1
Spine1	0	0	0	0	0	0	1
Neck	0	0	0	-7.352327771	-7.352327771	90	1
Head	0	0	0	0	-0	90	1
LeftShoulder	0	0	0	0	0	0	1
LeftArm	0	0	0	0	0	0	1
LeftForeArm	0	0	0	0	0	0	1
LeftHand	0	0	0	0	0	0	1
RightShoulder	0	0	0	0	-0	180	1
RightArm	0	0	0	0	-0	180	1
RightForeArm	0	0	0	0	-0	180	1
RightHand	0	0	0	0	-0	180	1
LeftUpLeg	0	0	0	0	-0	-90	1
LeftLeg	0	0	0	0	-0	-90	1
LeftFoot	0	0	0	66.57146043	-66.57146043	-90	1
LeftToeBase	0	0	0	0	-90	0	1
RightUpLeg	0	0	0	0	-0	-90	1
RightLeg	0	0	0	0	-0	-90	1
RightFoot	0	0	0	66.57146043	-66.57146043	-90	1
RightToeBase	0	0	0	0	-90	0	1
[reference]
55	0	0	0	0	-0	0	1.0
56	0	0	0	0	-0	0	1.0
57	0	0	0	0	-0	0	1.0
58	0	0	0	0	-0	0	1.0
59	0	0	0	0	-0	0	1.0
[Hips]
55	0.07140000165	8.175806999	-1.556839943	-2.321014404	-130.6878204	3.505767822	1.0
56	-0.1451860666	8.230747223	-1.743199825	-1.648783922	-130.4277039	3.154408455	1.0
57	-0.3866425753	8.245126724	-1.941922903	-1.295181274	-131.146286	2.951720476	1.0
58	-0.6430718303	8.250183105	-2.135212898	-1.881122589	-131.8181458	3.48618412	1.0
59	-0.8702555299	8.137430191	-2.323006392	-3.403538465	-132.9058838	5.430542469	1.0
[Spine]
55	0	0.7457100153	0	-5.851150513	2.160845757	-88.97531128	1.0
56	0	0.7457100153	0	-5.920940876	3.456637859	-88.79135132	1.0
57	0	0.7457100153	0	-6.213847637	4.852620125	-88.04135132	1.0
58	0	0.7457100153	0	-6.436726093	5.915233135	-87.05514526	1.0
59	0	0.7457100153	0	-5.798138618	6.507079124	-85.35368347	1.0
[Spine1]
55	0	2.140589952	0	10.32811165	0.5754698515	1.329111457	1.0
56	0	2.140589952	0	9.60990715	1.057968259	0.8695648909	1.0
57	0	2.140589952	0	9.689377785	1.56008029	0.2592903972	1.0
58	0	2.140589952	0	9.731571198	1.886731863	0.1537719071	1.0
59	0	2.140589952	0	9.277264595	2.052889109	0.5035921931	1.0
[Neck]
55	0	2.32246995	0	-17.94758797	10.18564224	-90.61178589	1.0
56	0	2.32246995	0	-17.37082863	9.502502441	-91.08130646	1.0
57	0	2.32246995	0	-16.7657795	9.431413651	-91.31598663	1.0
58	0	2.32246995	0	-16.33395386	9.490007401	-91.88616943	1.0
59	0	2.32246995	0	-15.83076286	9.945379257	-93.61994934	1.0
[Head]
55	0	1.409579992	0.1818799973	-6.430417061	3.159706593	-92.16312408	1.0
56	0	1.409579992	0.1818799973	-6.029401302	2.458765507	-91.679039	1.0
57	0	1.409579992	0.1818799973	-5.031934261	2.520722151	-92.8992691	1.0
58	0	1.409579992	0.1818799973	-4.651950836	2.717843533	-93.87931061	1.0
59	0	1.409579992	0.1818799973	-5.116645813	3.210635185	-92.82479095	1.0
[LeftShoulder]
55	0.3668199778	1.946700096	-0.02662999928	-13.50533485	-14.10771465	-2.399394989	1.0
56	0.3668199778	1.946700096	-0.02662999928	-12.61914825	-13.93119431	-1.536518097	1.0
57	0.3668199778	1.946700096	-0.02662999928	-11.5812521	-13.64843559	-0.783616066	1.0
58	0.3668199778	1.946700096	-0.02662999928	-10.62326908	-13.40537071	0.08398984373	1.0
59	0.3668199778	1.946700096	-0.02662999928	-10.05619717	-13.06844616	0.9665474892	1.0
[LeftArm]
55	1.140689969	0	0	35.02761078	14.00819778	-72.22129822	1.0
56	1.140689969	0	0	33.01782608	16.41806793	-69.45240021	1.0
57	1.140689969	0	0	32.16539383	18.87018585	-66.37287903	1.0
58	1.140689969	0	0	30.24542236	21.57859802	-63.90252686	1.0
59	1.140689969	0	0	26.89435005	24.43021774	-61.97480392	1.0
[LeftForeArm]
55	2.749800205	0	0	-13.58131599	-13.87476921	-1.844429731	1.0
56	2.749800205	0	0	-9.31196022	-13.20866966	-4.32333374	1.0
57	2.749800205	0	0	-7.467242718	-13.08675957	-6.715163231	1.0
58	2.749800205	0	0	-5.727880478	-13.50437737	-9.016825676	1.0
59	2.749800205	0	0	-3.42531991	-13.29487896	-11.39600945	1.0
[LeftHand]
55	2.295179844	0	0	-13.8457613	-0.5596655011	8.175917625	1.0
56	2.295179844	0	0	-9.881892204	-2.709373713	2.907780886	1.0
57	2.295179844	0	0	-8.15898037	-4.75592804	-1.907746673	1.0
58	2.295179844	0	0	-6.637456417	-4.873355865	-3.765996695	1.0
59	2.295179844	0	0	-4.62136507	-4.266183853	-3.662353992	1.0
[RightShoulder]
55	-0.3601199985	1.946700096	-0.02662999928	-7.672310829	4.294548512	174.5195923	1.0
56	-0.3601199985	1.946700096	-0.02662999928	-6.933467865	4.679151535	174.5316162	1.0
57	-0.3601199985	1.946700096	-0.02662999928	-7.990310192	5.256672382	173.8204651	1.0
58	-0.3601199985	1.946700096	-0.02662999928	-9.504402161	5.392698288	172.3788452	1.0
59	-0.3601199985	1.946700096	-0.02662999928	-10.05114174	5.983522892	171.5247498	1.0
[RightArm]
55	-1.140689969	0	0	60.97338104	6.248126507	-97.04541016	1.0
56	-1.140689969	0	0	63.92964172	9.885082245	-98.33683777	1.0
57	-1.140689969	0	0	67.16131592	11.92374039	-99.52217865	1.0
58	-1.140689969	0	0	69.87388611	14.10870647	-100.8210754	1.0
59	-1.140689969	0	0	71.64619446	17.72696877	-102.404686	1.0
[RightForeArm]
55	-2.749800205	0	0	2.167080402	16.12678337	177.9586792	1.0
56	-2.749800205	0	0	3.912084818	23.83054733	176.9753723	1.0
57	-2.749800205	0	0	5.740357876	32.67595291	176.4742737	1.0
58	-2.749800205	0	0	6.694125175	42.44351196	175.9430389	1.0
59	-2.749800205	0	0	8.706447601	50.67278671	177.1069031	1.0
[RightHand]
55	-2.295179844	0	0	1.506060958	9.578905106	168.8795471	1.0
56	-2.295179844	0	0	3.167653561	11.56980705	166.3239899	1.0
57	-2.295179844	0	0	4.810132027	13.87365437	163.9889984	1.0
58	-2.295179844	0	0	6.199408054	15.34114647	164.844223	1.0
59	-2.295179844	0	0	7.787863731	16.35360336	164.1713104	1.0
[LeftUpLeg]
55	0.9094099998	0	0	-28.55574799	2.547644854	95.1774292	1.0
56	0.9094099998	0	0	-27.42217445	2.109287739	93.67292786	1.0
57	0.9094099998	0	0	-22.59254456	2.817425013	92.57250214	1.0
58	0.9094099998	0	0	-17.78196716	2.029242039	92.3587265	1.0
59	0.9094099998	0	0	-18.09442139	1.032648563	93.49842834	1.0
[LeftLeg]
55	0	-4.498080254	0	70.76480103	-6.941685677	56.88049698	1.0
56	0	-4.498080254	0	52.2521286	-9.138734818	70.96427917	1.0
57	0	-4.498080254	0	26.62127686	-4.302017689	82.94165802	1.0
58	0	-4.498080254	0	6.922207355	-0.9017356634	86.72438812	1.0
59	0	-4.498080254	0	7.511510849	-0.3159669936	87.36804962	1.0
[LeftFoot]
55	0	-3.729400158	0	-39.72338486	127.8839569	15.66067314	1.0
56	0	-3.729400158	0	-50.65279007	116.2329636	7.663644791	1.0
57	0	-3.729400158	0	-73.08678436	104.7269058	-18.71087646	1.0
58	0	-3.729400158	0	-79.10988617	95.10585022	-34.53801727	1.0
59	0	-3.729400158	0	-112.572403	96.49459076	-67.8180542	1.0
[LeftToeBase]
55	0	-0.5911099911	1.364109993	0	0	0	1.0
56	0	-0.5911099911	1.364109993	0	0	0	1.0
57	0	-0.5911099911	1.364109993	0	0	0	1.0
58	0	-0.5911099911	1.364109993	0	0	0	1.0
59	0	-0.5911099911	1.364109993	0	0	0	1.0
[RightUpLeg]
55	-0.9094099998	0	0	-8.688825607	-3.586676836	100.4157333	1.0
56	-0.9094099998	0	0	-2.741130829	-3.364348412	98.66192627	1.0
57	-0.9094099998	0	0	3.844430208	-3.411786795	96.84069061	1.0
58	-0.9094099998	0	0	9.068514824	-4.458384514	95.43315887	1.0
59	-0.9094099998	0	0	10.38466072	-5.132357597	96.30201721	1.0
[RightLeg]
55	0	-4.498080254	0	31.50249863	5.531043053	87.97857666	1.0
56	0	-4.498080254	0	21.6568222	-0.7194811106	87.27206421	1.0
57	0	-4.498080254	0	11.932477	-0.1606815308	90.89853668	1.0
58	0	-4.498080254	0	6.049800873	0.06722791493	93.01950073	1.0
59	0	-4.498080254	0	8.354911804	1.215884686	93.00743103	1.0
[RightFoot]
55	0	-3.729400158	0	12.05855179	62.46645737	71.62008667	1.0
56	0	-3.729400158	0	21.68401146	67.31115723	81.57315063	1.0
57	0	-3.729400158	0	17.54206276	68.84481812	74.04546356	1.0
58	0	-3.729400158	0	22.62020683	70.33283997	79.2479248	1.0
59	0	-3.729400158	0	17.96459579	69.83591461	78.56395721	1.0
[RightToeBase]
55	0	-0.5911099911	1.364109993	0	0	0	1.0
56	0	-0.5911099911	1.364109993	0	0	0	1.0
57	0	-0.5911099911	1.364109993	0	0	0	1.0
58	0	-0.5911099911	1.364109993	0	0	0	1.0
59	0	-0.5911099911	1.364109993	0	0	0	1.0
[EndOfFile]
